<?xml version="1.0" encoding="UTF-8" standalone="no"?>
<!-- Created with Inkscape (http://www.inkscape.org/) -->

<svg
   xmlns:dc="http://purl.org/dc/elements/1.1/"
   xmlns:cc="http://creativecommons.org/ns#"
   xmlns:rdf="http://www.w3.org/1999/02/22-rdf-syntax-ns#"
   xmlns:svg="http://www.w3.org/2000/svg"
   xmlns="http://www.w3.org/2000/svg"
   xmlns:sodipodi="http://sodipodi.sourceforge.net/DTD/sodipodi-0.dtd"
   xmlns:inkscape="http://www.inkscape.org/namespaces/inkscape"
   inkscape:version="0.91 r13725"
   version="1.1"
   id="svg2"
   viewBox="0 0 2125.9843 1417.3228"
   height="400mm"
   width="600mm"
   sodipodi:docname="stickomat_box.svg">
  <sodipodi:namedview
     inkscape:window-maximized="1"
     inkscape:window-y="1"
     inkscape:window-x="0"
     inkscape:window-height="717"
     inkscape:window-width="1280"
     showgrid="false"
     inkscape:document-units="mm"
     inkscape:cy="747.75077"
     inkscape:cx="964.07539"
     inkscape:zoom="0.35"
     inkscape:pageshadow="2"
     inkscape:pageopacity="0.0"
     borderopacity="1.0"
     bordercolor="#666666"
     pagecolor="#ffffff"
     id="base"
     showguides="true"
     inkscape:guide-bbox="true"
     inkscape:snap-global="true"
     inkscape:snap-bbox="true"
     inkscape:current-layer="g4500">
    <sodipodi:guide
       position="537.1429,1377.1428"
       orientation="1,0"
       id="guide4591" />
    <sodipodi:guide
       position="537.1429,1251.4285"
       orientation="0,1"
       id="guide4593" />
  </sodipodi:namedview>
  <defs
     id="defs4" />
  <metadata
     id="metadata7">
    <rdf:RDF>
      <cc:Work
         rdf:about="">
        <dc:format>image/svg+xml</dc:format>
        <dc:type
           rdf:resource="http://purl.org/dc/dcmitype/StillImage" />
        <dc:title></dc:title>
      </cc:Work>
    </rdf:RDF>
  </metadata>
  <g
     inkscape:label="Ebene 1"
     inkscape:groupmode="layer"
     id="layer1"
     transform="translate(0,364.96067)" />
  <g
     inkscape:label="newlayer"
     inkscape:groupmode="layer"
     id="g4189" />
  <g
     id="g4297"
     inkscape:groupmode="layer"
     inkscape:label="newlayer" />
  <g
     inkscape:label="newlayer"
     inkscape:groupmode="layer"
     id="g4383" />
  <g
     id="g4500"
     inkscape:groupmode="layer"
     inkscape:label="newlayer">
    <flowRoot
       xml:space="preserve"
       id="flowRoot4583"
       style="fill:black;stroke:none;stroke-opacity:1;stroke-width:1px;stroke-linejoin:miter;stroke-linecap:butt;fill-opacity:1;font-family:sans-serif;font-style:normal;font-weight:normal;font-size:40px;line-height:125%;letter-spacing:0px;word-spacing:0px"><flowRegion
         id="flowRegion4585"><rect
           id="rect4587"
           width="0"
           height="205.71428"
           x="517.14288"
           y="43.037163" /></flowRegion><flowPara
         id="flowPara4589"></flowPara></flowRoot>  </g>
  <path
     id="path4502"
     inkscape:label="part"
     style="stroke:#000000;fill:none"
     d="M 361.417322833,729.92125984 L 386.946850389,729.92125984 L 386.946850389,719.29133858 L 408.525590553,719.29133858 L 408.525590553,729.92125984 L 433.895669287,729.92125984 L 433.895669287,719.29133858 L 455.47440945,719.29133858 L 455.47440945,729.92125984 L 480.844488184,729.92125984 L 480.844488184,719.29133858 L 502.423228347,719.29133858 L 502.423228347,729.92125984 L 527.793307081,729.92125984 L 527.793307081,719.29133858 L 549.372047245,719.29133858 L 549.372047245,729.92125984 L 574.742125979,729.92125984 L 574.742125979,719.29133858 L 596.320866142,719.29133858 L 596.320866142,729.92125984 L 621.690944876,729.92125984 L 621.690944876,719.29133858 L 643.26968504,719.29133858 L 643.26968504,729.92125984 L 668.639763774,729.92125984 L 668.639763774,719.29133858 L 690.218503937,719.29133858 L 690.218503937,729.92125984 L 715.748031493,729.92125984 " />
  <path
     id="path4504"
     inkscape:label="part"
     style="stroke:#000000;fill:none"
     d="M 715.748031493,729.92125984 L 715.748031493,745.13976378 L 705.118110233,745.13976378 L 705.118110233,766.080708655 L 715.748031493,766.080708655 L 715.748031493,792.088582677 L 705.118110233,792.088582677 L 705.118110233,813.029527553 L 715.748031493,813.029527553 L 715.748031493,839.037401574 L 705.118110233,839.037401574 L 705.118110233,859.97834645 L 715.748031493,859.97834645 L 715.748031493,885.986220472 L 705.118110233,885.986220472 L 705.118110233,906.927165348 L 715.748031493,906.927165348 L 715.748031493,932.935039369 L 705.118110233,932.935039369 L 705.118110233,953.875984245 L 715.748031493,953.875984245 L 715.748031493,979.883858267 L 705.118110233,979.883858267 L 705.118110233,1000.82480314 L 715.748031493,1000.82480314 L 715.748031493,1026.83267716 L 705.118110233,1026.83267716 L 705.118110233,1047.77362204 L 715.748031493,1047.77362204 L 715.748031493,1062.99212598 " />
  <path
     id="path4506"
     inkscape:label="part"
     style="stroke:#000000;fill:none"
     d="M 715.748031493,1062.99212598 L 690.218503937,1062.99212598 L 690.218503937,1073.62204724 L 668.639763774,1073.62204724 L 668.639763774,1062.99212598 L 643.26968504,1062.99212598 L 643.26968504,1073.62204724 L 621.690944876,1073.62204724 L 621.690944876,1062.99212598 L 596.320866142,1062.99212598 L 596.320866142,1073.62204724 L 574.742125979,1073.62204724 L 574.742125979,1062.99212598 L 549.372047245,1062.99212598 L 549.372047245,1073.62204724 L 527.793307081,1073.62204724 L 527.793307081,1062.99212598 L 502.423228347,1062.99212598 L 502.423228347,1073.62204724 L 480.844488184,1073.62204724 L 480.844488184,1062.99212598 L 455.47440945,1062.99212598 L 455.47440945,1073.62204724 L 433.895669287,1073.62204724 L 433.895669287,1062.99212598 L 408.525590553,1062.99212598 L 408.525590553,1073.62204724 L 386.946850389,1073.62204724 L 386.946850389,1062.99212598 L 361.417322833,1062.99212598 " />
  <path
     id="path4508"
     inkscape:label="part"
     style="stroke:#000000;fill:none"
     d="M 361.417322833,1062.99212598 L 361.417322833,1047.77362204 L 372.047244093,1047.77362204 L 372.047244093,1026.83267716 L 361.417322833,1026.83267716 L 361.417322833,1000.82480314 L 372.047244093,1000.82480314 L 372.047244093,979.883858267 L 361.417322833,979.883858267 L 361.417322833,953.875984245 L 372.047244093,953.875984245 L 372.047244093,932.935039369 L 361.417322833,932.935039369 L 361.417322833,906.927165348 L 372.047244093,906.927165348 L 372.047244093,885.986220472 L 361.417322833,885.986220472 L 361.417322833,859.97834645 L 372.047244093,859.97834645 L 372.047244093,839.037401574 L 361.417322833,839.037401574 L 361.417322833,813.029527553 L 372.047244093,813.029527553 L 372.047244093,792.088582677 L 361.417322833,792.088582677 L 361.417322833,766.080708655 L 372.047244093,766.080708655 L 372.047244093,745.13976378 L 361.417322833,745.13976378 L 361.417322833,729.92125984 " />
  <path
     id="path4510"
     inkscape:label="part"
     style="stroke:#000000;fill:none"
     d="M 14.1732283464,372.047244093 L 29.0728346425,372.047244093 L 29.0728346425,361.417322833 L 50.651574806,361.417322833 L 50.651574806,372.047244093 L 76.02165354,372.047244093 L 76.02165354,361.417322833 L 97.6003937034,361.417322833 L 97.6003937034,372.047244093 L 122.970472437,372.047244093 L 122.970472437,361.417322833 L 144.549212601,361.417322833 L 144.549212601,372.047244093 L 169.919291335,372.047244093 L 169.919291335,361.417322833 L 191.498031498,361.417322833 L 191.498031498,372.047244093 L 216.868110232,372.047244093 L 216.868110232,361.417322833 L 238.446850396,361.417322833 L 238.446850396,372.047244093 L 263.81692913,372.047244093 L 263.81692913,361.417322833 L 285.395669293,361.417322833 L 285.395669293,372.047244093 L 310.765748027,372.047244093 L 310.765748027,361.417322833 L 332.344488191,361.417322833 L 332.344488191,372.047244093 L 347.244094487,372.047244093 " />
  <path
     id="path4512"
     inkscape:label="part"
     style="stroke:#000000;fill:none"
     d="M 347.244094487,372.047244093 L 347.244094487,386.946850389 L 357.874015747,386.946850389 L 357.874015747,408.525590553 L 347.244094487,408.525590553 L 347.244094487,433.895669287 L 357.874015747,433.895669287 L 357.874015747,455.47440945 L 347.244094487,455.47440945 L 347.244094487,480.844488184 L 357.874015747,480.844488184 L 357.874015747,502.423228347 L 347.244094487,502.423228347 L 347.244094487,527.793307081 L 357.874015747,527.793307081 L 357.874015747,549.372047245 L 347.244094487,549.372047245 L 347.244094487,574.742125979 L 357.874015747,574.742125979 L 357.874015747,596.320866142 L 347.244094487,596.320866142 L 347.244094487,621.690944876 L 357.874015747,621.690944876 L 357.874015747,643.26968504 L 347.244094487,643.26968504 L 347.244094487,668.639763774 L 357.874015747,668.639763774 L 357.874015747,690.218503937 L 347.244094487,690.218503937 L 347.244094487,705.118110233 " />
  <path
     id="path4514"
     inkscape:label="part"
     style="stroke:#000000;fill:none"
     d="M 347.244094487,705.118110233 L 332.344488191,705.118110233 L 332.344488191,715.748031493 L 310.765748027,715.748031493 L 310.765748027,705.118110233 L 285.395669293,705.118110233 L 285.395669293,715.748031493 L 263.81692913,715.748031493 L 263.81692913,705.118110233 L 238.446850396,705.118110233 L 238.446850396,715.748031493 L 216.868110232,715.748031493 L 216.868110232,705.118110233 L 191.498031498,705.118110233 L 191.498031498,715.748031493 L 169.919291335,715.748031493 L 169.919291335,705.118110233 L 144.549212601,705.118110233 L 144.549212601,715.748031493 L 122.970472437,715.748031493 L 122.970472437,705.118110233 L 97.6003937034,705.118110233 L 97.6003937034,715.748031493 L 76.02165354,715.748031493 L 76.02165354,705.118110233 L 50.651574806,705.118110233 L 50.651574806,715.748031493 L 29.0728346425,715.748031493 L 29.0728346425,705.118110233 L 14.1732283464,705.118110233 " />
  <path
     id="path4516"
     inkscape:label="part"
     style="stroke:#000000;fill:none"
     d="M 14.1732283464,705.118110233 L 14.1732283464,690.218503937 L 3.5433070866,690.218503937 L 3.5433070866,668.639763774 L 14.1732283464,668.639763774 L 14.1732283464,643.26968504 L 3.5433070866,643.26968504 L 3.5433070866,621.690944876 L 14.1732283464,621.690944876 L 14.1732283464,596.320866142 L 3.5433070866,596.320866142 L 3.5433070866,574.742125979 L 14.1732283464,574.742125979 L 14.1732283464,549.372047245 L 3.5433070866,549.372047245 L 3.5433070866,527.793307081 L 14.1732283464,527.793307081 L 14.1732283464,502.423228347 L 3.5433070866,502.423228347 L 3.5433070866,480.844488184 L 14.1732283464,480.844488184 L 14.1732283464,455.47440945 L 3.5433070866,455.47440945 L 3.5433070866,433.895669287 L 14.1732283464,433.895669287 L 14.1732283464,408.525590553 L 3.5433070866,408.525590553 L 3.5433070866,386.946850389 L 14.1732283464,386.946850389 L 14.1732283464,372.047244093 " />
  <path
     id="path4518"
     inkscape:label="part"
     style="stroke:#000000;fill:none"
     d="M 361.417322833,361.417322833 L 387.265748033,361.417322833 L 387.265748033,372.047244093 L 408.206692909,372.047244093 L 408.206692909,361.417322833 L 434.21456693,361.417322833 L 434.21456693,372.047244093 L 455.155511806,372.047244093 L 455.155511806,361.417322833 L 481.163385828,361.417322833 L 481.163385828,372.047244093 L 502.104330704,372.047244093 L 502.104330704,361.417322833 L 528.112204725,361.417322833 L 528.112204725,372.047244093 L 549.053149601,372.047244093 L 549.053149601,361.417322833 L 575.061023623,361.417322833 L 575.061023623,372.047244093 L 596.001968499,372.047244093 L 596.001968499,361.417322833 L 622.00984252,361.417322833 L 622.00984252,372.047244093 L 642.950787396,372.047244093 L 642.950787396,361.417322833 L 668.958661418,361.417322833 L 668.958661418,372.047244093 L 689.899606293,372.047244093 L 689.899606293,361.417322833 L 715.748031493,361.417322833 " />
  <path
     id="path4520"
     inkscape:label="part"
     style="stroke:#000000;fill:none"
     d="M 715.748031493,361.417322833 L 715.748031493,387.265748033 L 705.118110233,387.265748033 L 705.118110233,408.206692909 L 715.748031493,408.206692909 L 715.748031493,434.21456693 L 705.118110233,434.21456693 L 705.118110233,455.155511806 L 715.748031493,455.155511806 L 715.748031493,481.163385828 L 705.118110233,481.163385828 L 705.118110233,502.104330704 L 715.748031493,502.104330704 L 715.748031493,528.112204725 L 705.118110233,528.112204725 L 705.118110233,549.053149601 L 715.748031493,549.053149601 L 715.748031493,575.061023623 L 705.118110233,575.061023623 L 705.118110233,596.001968499 L 715.748031493,596.001968499 L 715.748031493,622.00984252 L 705.118110233,622.00984252 L 705.118110233,642.950787396 L 715.748031493,642.950787396 L 715.748031493,668.958661418 L 705.118110233,668.958661418 L 705.118110233,689.899606293 L 715.748031493,689.899606293 L 715.748031493,715.748031493 " />
  <path
     id="path4522"
     inkscape:label="part"
     style="stroke:#000000;fill:none"
     d="M 715.748031493,715.748031493 L 689.899606293,715.748031493 L 689.899606293,705.118110233 L 668.958661418,705.118110233 L 668.958661418,715.748031493 L 642.950787396,715.748031493 L 642.950787396,705.118110233 L 622.00984252,705.118110233 L 622.00984252,715.748031493 L 596.001968499,715.748031493 L 596.001968499,705.118110233 L 575.061023623,705.118110233 L 575.061023623,715.748031493 L 549.053149601,715.748031493 L 549.053149601,705.118110233 L 528.112204725,705.118110233 L 528.112204725,715.748031493 L 502.104330704,715.748031493 L 502.104330704,705.118110233 L 481.163385828,705.118110233 L 481.163385828,715.748031493 L 455.155511806,715.748031493 L 455.155511806,705.118110233 L 434.21456693,705.118110233 L 434.21456693,715.748031493 L 408.206692909,715.748031493 L 408.206692909,705.118110233 L 387.265748033,705.118110233 L 387.265748033,715.748031493 L 361.417322833,715.748031493 " />
  <path
     id="path4524"
     inkscape:label="part"
     style="stroke:#000000;fill:none"
     d="M 361.417322833,715.748031493 L 361.417322833,689.899606293 L 372.047244093,689.899606293 L 372.047244093,668.958661418 L 361.417322833,668.958661418 L 361.417322833,642.950787396 L 372.047244093,642.950787396 L 372.047244093,622.00984252 L 361.417322833,622.00984252 L 361.417322833,596.001968499 L 372.047244093,596.001968499 L 372.047244093,575.061023623 L 361.417322833,575.061023623 L 361.417322833,549.053149601 L 372.047244093,549.053149601 L 372.047244093,528.112204725 L 361.417322833,528.112204725 L 361.417322833,502.104330704 L 372.047244093,502.104330704 L 372.047244093,481.163385828 L 361.417322833,481.163385828 L 361.417322833,455.155511806 L 372.047244093,455.155511806 L 372.047244093,434.21456693 L 361.417322833,434.21456693 L 361.417322833,408.206692909 L 372.047244093,408.206692909 L 372.047244093,387.265748033 L 361.417322833,387.265748033 L 361.417322833,361.417322833 " />
  <path
     id="path4526"
     inkscape:label="part"
     style="stroke:#000000;fill:none"
     d="M 729.92125984,372.047244093 L 744.820866136,372.047244093 L 744.820866136,361.417322833 L 766.399606299,361.417322833 L 766.399606299,372.047244093 L 791.769685033,372.047244093 L 791.769685033,361.417322833 L 813.348425197,361.417322833 L 813.348425197,372.047244093 L 838.718503931,372.047244093 L 838.718503931,361.417322833 L 860.297244094,361.417322833 L 860.297244094,372.047244093 L 885.667322828,372.047244093 L 885.667322828,361.417322833 L 907.246062992,361.417322833 L 907.246062992,372.047244093 L 932.616141726,372.047244093 L 932.616141726,361.417322833 L 954.194881889,361.417322833 L 954.194881889,372.047244093 L 979.564960623,372.047244093 L 979.564960623,361.417322833 L 1001.14370079,361.417322833 L 1001.14370079,372.047244093 L 1026.51377952,372.047244093 L 1026.51377952,361.417322833 L 1048.09251968,361.417322833 L 1048.09251968,372.047244093 L 1062.99212598,372.047244093 " />
  <path
     id="path4528"
     inkscape:label="part"
     style="stroke:#000000;fill:none"
     d="M 1062.99212598,372.047244093 L 1062.99212598,386.946850389 L 1073.62204724,386.946850389 L 1073.62204724,408.525590553 L 1062.99212598,408.525590553 L 1062.99212598,433.895669287 L 1073.62204724,433.895669287 L 1073.62204724,455.47440945 L 1062.99212598,455.47440945 L 1062.99212598,480.844488184 L 1073.62204724,480.844488184 L 1073.62204724,502.423228347 L 1062.99212598,502.423228347 L 1062.99212598,527.793307081 L 1073.62204724,527.793307081 L 1073.62204724,549.372047245 L 1062.99212598,549.372047245 L 1062.99212598,574.742125979 L 1073.62204724,574.742125979 L 1073.62204724,596.320866142 L 1062.99212598,596.320866142 L 1062.99212598,621.690944876 L 1073.62204724,621.690944876 L 1073.62204724,643.26968504 L 1062.99212598,643.26968504 L 1062.99212598,668.639763774 L 1073.62204724,668.639763774 L 1073.62204724,690.218503937 L 1062.99212598,690.218503937 L 1062.99212598,705.118110233 " />
  <path
     id="path4530"
     inkscape:label="part"
     style="stroke:#000000;fill:none"
     d="M 1062.99212598,705.118110233 L 1048.09251968,705.118110233 L 1048.09251968,715.748031493 L 1026.51377952,715.748031493 L 1026.51377952,705.118110233 L 1001.14370079,705.118110233 L 1001.14370079,715.748031493 L 979.564960623,715.748031493 L 979.564960623,705.118110233 L 954.194881889,705.118110233 L 954.194881889,715.748031493 L 932.616141726,715.748031493 L 932.616141726,705.118110233 L 907.246062992,705.118110233 L 907.246062992,715.748031493 L 885.667322828,715.748031493 L 885.667322828,705.118110233 L 860.297244094,705.118110233 L 860.297244094,715.748031493 L 838.718503931,715.748031493 L 838.718503931,705.118110233 L 813.348425197,705.118110233 L 813.348425197,715.748031493 L 791.769685033,715.748031493 L 791.769685033,705.118110233 L 766.399606299,705.118110233 L 766.399606299,715.748031493 L 744.820866136,715.748031493 L 744.820866136,705.118110233 L 729.92125984,705.118110233 " />
  <path
     id="path4532"
     inkscape:label="part"
     style="stroke:#000000;fill:none"
     d="M 729.92125984,705.118110233 L 729.92125984,690.218503937 L 719.29133858,690.218503937 L 719.29133858,668.639763774 L 729.92125984,668.639763774 L 729.92125984,643.26968504 L 719.29133858,643.26968504 L 719.29133858,621.690944876 L 729.92125984,621.690944876 L 729.92125984,596.320866142 L 719.29133858,596.320866142 L 719.29133858,574.742125979 L 729.92125984,574.742125979 L 729.92125984,549.372047245 L 719.29133858,549.372047245 L 719.29133858,527.793307081 L 729.92125984,527.793307081 L 729.92125984,502.423228347 L 719.29133858,502.423228347 L 719.29133858,480.844488184 L 729.92125984,480.844488184 L 729.92125984,455.47440945 L 719.29133858,455.47440945 L 719.29133858,433.895669287 L 729.92125984,433.895669287 L 729.92125984,408.525590553 L 719.29133858,408.525590553 L 719.29133858,386.946850389 L 729.92125984,386.946850389 L 729.92125984,372.047244093 " />
  <path
     id="path4534"
     inkscape:label="part"
     style="stroke:#000000;fill:none"
     d="M 1077.16535433,361.417322833 L 1103.01377953,361.417322833 L 1103.01377953,372.047244093 L 1123.9547244,372.047244093 L 1123.9547244,361.417322833 L 1149.96259842,361.417322833 L 1149.96259842,372.047244093 L 1170.9035433,372.047244093 L 1170.9035433,361.417322833 L 1196.91141732,361.417322833 L 1196.91141732,372.047244093 L 1217.8523622,372.047244093 L 1217.8523622,361.417322833 L 1243.86023622,361.417322833 L 1243.86023622,372.047244093 L 1264.80118109,372.047244093 L 1264.80118109,361.417322833 L 1290.80905512,361.417322833 L 1290.80905512,372.047244093 L 1311.74999999,372.047244093 L 1311.74999999,361.417322833 L 1337.75787401,361.417322833 L 1337.75787401,372.047244093 L 1358.69881889,372.047244093 L 1358.69881889,361.417322833 L 1384.70669291,361.417322833 L 1384.70669291,372.047244093 L 1405.64763779,372.047244093 L 1405.64763779,361.417322833 L 1431.49606299,361.417322833 " />
  <path
     id="path4536"
     inkscape:label="part"
     style="stroke:#000000;fill:none"
     d="M 1431.49606299,361.417322833 L 1431.49606299,387.265748033 L 1420.86614173,387.265748033 L 1420.86614173,408.206692909 L 1431.49606299,408.206692909 L 1431.49606299,434.21456693 L 1420.86614173,434.21456693 L 1420.86614173,455.155511806 L 1431.49606299,455.155511806 L 1431.49606299,481.163385828 L 1420.86614173,481.163385828 L 1420.86614173,502.104330704 L 1431.49606299,502.104330704 L 1431.49606299,528.112204725 L 1420.86614173,528.112204725 L 1420.86614173,549.053149601 L 1431.49606299,549.053149601 L 1431.49606299,575.061023623 L 1420.86614173,575.061023623 L 1420.86614173,596.001968499 L 1431.49606299,596.001968499 L 1431.49606299,622.00984252 L 1420.86614173,622.00984252 L 1420.86614173,642.950787396 L 1431.49606299,642.950787396 L 1431.49606299,668.958661418 L 1420.86614173,668.958661418 L 1420.86614173,689.899606293 L 1431.49606299,689.899606293 L 1431.49606299,715.748031493 " />
  <path
     id="path4538"
     inkscape:label="part"
     style="stroke:#000000;fill:none"
     d="M 1431.49606299,715.748031493 L 1405.64763779,715.748031493 L 1405.64763779,705.118110233 L 1384.70669291,705.118110233 L 1384.70669291,715.748031493 L 1358.69881889,715.748031493 L 1358.69881889,705.118110233 L 1337.75787401,705.118110233 L 1337.75787401,715.748031493 L 1311.74999999,715.748031493 L 1311.74999999,705.118110233 L 1290.80905512,705.118110233 L 1290.80905512,715.748031493 L 1264.80118109,715.748031493 L 1264.80118109,705.118110233 L 1243.86023622,705.118110233 L 1243.86023622,715.748031493 L 1217.8523622,715.748031493 L 1217.8523622,705.118110233 L 1196.91141732,705.118110233 L 1196.91141732,715.748031493 L 1170.9035433,715.748031493 L 1170.9035433,705.118110233 L 1149.96259842,705.118110233 L 1149.96259842,715.748031493 L 1123.9547244,715.748031493 L 1123.9547244,705.118110233 L 1103.01377953,705.118110233 L 1103.01377953,715.748031493 L 1077.16535433,715.748031493 " />
  <path
     id="path4540"
     inkscape:label="part"
     style="stroke:#000000;fill:none"
     d="M 1077.16535433,715.748031493 L 1077.16535433,689.899606293 L 1087.79527559,689.899606293 L 1087.79527559,668.958661418 L 1077.16535433,668.958661418 L 1077.16535433,642.950787396 L 1087.79527559,642.950787396 L 1087.79527559,622.00984252 L 1077.16535433,622.00984252 L 1077.16535433,596.001968499 L 1087.79527559,596.001968499 L 1087.79527559,575.061023623 L 1077.16535433,575.061023623 L 1077.16535433,549.053149601 L 1087.79527559,549.053149601 L 1087.79527559,528.112204725 L 1077.16535433,528.112204725 L 1077.16535433,502.104330704 L 1087.79527559,502.104330704 L 1087.79527559,481.163385828 L 1077.16535433,481.163385828 L 1077.16535433,455.155511806 L 1087.79527559,455.155511806 L 1087.79527559,434.21456693 L 1077.16535433,434.21456693 L 1077.16535433,408.206692909 L 1087.79527559,408.206692909 L 1087.79527559,387.265748033 L 1077.16535433,387.265748033 L 1077.16535433,361.417322833 " />
  <path
     id="path4542"
     inkscape:label="part"
     style="stroke:#000000;fill:none"
     d="M 361.417322833,14.1732283464 L 386.946850389,14.1732283464 L 386.946850389,3.5433070866 L 408.525590553,3.5433070866 L 408.525590553,14.1732283464 L 433.895669287,14.1732283464 L 433.895669287,3.5433070866 L 455.47440945,3.5433070866 L 455.47440945,14.1732283464 L 480.844488184,14.1732283464 L 480.844488184,3.5433070866 L 502.423228347,3.5433070866 L 502.423228347,14.1732283464 L 527.793307081,14.1732283464 L 527.793307081,3.5433070866 L 549.372047245,3.5433070866 L 549.372047245,14.1732283464 L 574.742125979,14.1732283464 L 574.742125979,3.5433070866 L 596.320866142,3.5433070866 L 596.320866142,14.1732283464 L 621.690944876,14.1732283464 L 621.690944876,3.5433070866 L 643.26968504,3.5433070866 L 643.26968504,14.1732283464 L 668.639763774,14.1732283464 L 668.639763774,3.5433070866 L 690.218503937,3.5433070866 L 690.218503937,14.1732283464 L 715.748031493,14.1732283464 " />
  <path
     id="path4544"
     inkscape:label="part"
     style="stroke:#000000;fill:none"
     d="M 715.748031493,14.1732283464 L 715.748031493,29.3917322864 L 705.118110233,29.3917322864 L 705.118110233,50.3326771621 L 715.748031493,50.3326771621 L 715.748031493,76.3405511838 L 705.118110233,76.3405511838 L 705.118110233,97.2814960596 L 715.748031493,97.2814960596 L 715.748031493,123.289370081 L 705.118110233,123.289370081 L 705.118110233,144.230314957 L 715.748031493,144.230314957 L 715.748031493,170.238188979 L 705.118110233,170.238188979 L 705.118110233,191.179133854 L 715.748031493,191.179133854 L 715.748031493,217.187007876 L 705.118110233,217.187007876 L 705.118110233,238.127952752 L 715.748031493,238.127952752 L 715.748031493,264.135826774 L 705.118110233,264.135826774 L 705.118110233,285.076771649 L 715.748031493,285.076771649 L 715.748031493,311.084645671 L 705.118110233,311.084645671 L 705.118110233,332.025590547 L 715.748031493,332.025590547 L 715.748031493,347.244094487 " />
  <path
     id="path4546"
     inkscape:label="part"
     style="stroke:#000000;fill:none"
     d="M 715.748031493,347.244094487 L 690.218503937,347.244094487 L 690.218503937,357.874015747 L 668.639763774,357.874015747 L 668.639763774,347.244094487 L 643.26968504,347.244094487 L 643.26968504,357.874015747 L 621.690944876,357.874015747 L 621.690944876,347.244094487 L 596.320866142,347.244094487 L 596.320866142,357.874015747 L 574.742125979,357.874015747 L 574.742125979,347.244094487 L 549.372047245,347.244094487 L 549.372047245,357.874015747 L 527.793307081,357.874015747 L 527.793307081,347.244094487 L 502.423228347,347.244094487 L 502.423228347,357.874015747 L 480.844488184,357.874015747 L 480.844488184,347.244094487 L 455.47440945,347.244094487 L 455.47440945,357.874015747 L 433.895669287,357.874015747 L 433.895669287,347.244094487 L 408.525590553,347.244094487 L 408.525590553,357.874015747 L 386.946850389,357.874015747 L 386.946850389,347.244094487 L 361.417322833,347.244094487 " />
  <path
     id="path4548"
     inkscape:label="part"
     style="stroke:#000000;fill:none"
     d="M 361.417322833,347.244094487 L 361.417322833,332.025590547 L 372.047244093,332.025590547 L 372.047244093,311.084645671 L 361.417322833,311.084645671 L 361.417322833,285.076771649 L 372.047244093,285.076771649 L 372.047244093,264.135826774 L 361.417322833,264.135826774 L 361.417322833,238.127952752 L 372.047244093,238.127952752 L 372.047244093,217.187007876 L 361.417322833,217.187007876 L 361.417322833,191.179133854 L 372.047244093,191.179133854 L 372.047244093,170.238188979 L 361.417322833,170.238188979 L 361.417322833,144.230314957 L 372.047244093,144.230314957 L 372.047244093,123.289370081 L 361.417322833,123.289370081 L 361.417322833,97.2814960596 L 372.047244093,97.2814960596 L 372.047244093,76.3405511838 L 361.417322833,76.3405511838 L 361.417322833,50.3326771621 L 372.047244093,50.3326771621 L 372.047244093,29.3917322864 L 361.417322833,29.3917322864 L 361.417322833,14.1732283464 " />
</svg>
